PathFileType	4	(X/Y/Z)	OpenSim_Sub04_CSBaseline_Accel.trc
DataRate	CameraRate	NumFrames	NumMarkers	Units	OrigDataRate	OrigDataStartFrame	OrigNumFrames
100	100	38	8	m	100	4042	8083
Frame#	Time	torso_imu_offset_imu	pelvis_imu_offset_imu	tibia_r_imu_offset_imu	femur_r_imu_offset_imu	tibia_l_imu_offset_imu	femur_l_imu_offset_imu	toes_r_imu_offset_imu	toes_l_imu_offset_imu
				X1	Y1	Z1	X2	Y2	Z2	X3	Y3	Z3	X4	Y4	Z4	X5	Y5	Z5	X6	Y6	Z6	X7	Y7	Z7	X8		Y8	Z8	

4042	40.41000000	-7.34532846	0.92165730	8.08785361	9.28645700	1.56112631	4.37739500	9.91352705	1.79984016	-0.04912008	9.15971828	-0.13499599	-0.09813747	3.89715925	-6.03162106	0.92128691	11.65330046	-0.41419176	-0.08882600	5.65467387	-2.55541941	7.76551409	-0.96242222	5.75050391	13.17837892
4043	40.42000000	-7.33729977	0.92510037	8.13077866	8.85220840	1.59955310	4.26481211	9.80965924	1.81509741	0.29782660	9.23014873	-0.00235701	-0.22593948	4.17493628	-6.58512515	0.81753897	10.98255623	-0.20507254	0.92176656	5.59985527	-2.40745651	7.91791463	-0.53891479	4.72371057	12.85965619
4044	40.43000000	-7.51857463	0.84938550	8.09403195	8.45652985	1.57111634	4.29536012	9.82419836	1.63671042	0.60980551	9.17136133	-0.07745438	-0.33912590	4.77864305	-6.55065381	0.54527956	10.58593562	-0.31914481	0.57494328	5.57105539	-2.18172385	7.87627221	0.57128472	3.24288190	12.85820012
4045	40.44000000	-7.59466589	0.74192058	8.14062957	8.22585566	1.67036486	4.29346780	9.87057326	1.28506258	0.87295118	9.30246077	-0.15402434	-0.38085718	5.27532580	-6.25367845	0.24146461	10.08934225	-0.16465635	0.63839976	5.76757033	-2.17516184	7.82182423	1.73015772	1.91920458	12.97351944
4046	40.45000000	-7.59650463	0.61322064	8.16515584	8.07565222	1.63786566	4.32224448	9.77623723	1.04169441	0.75891530	9.32202696	-0.36077594	-0.51214557	5.35033202	-6.12796478	0.02310207	10.47258072	0.32760545	0.85249319	6.22556497	-1.88980266	7.56256423	2.66615072	1.44487099	12.96594149
4047	40.46000000	-7.63230658	0.52973408	8.37059167	8.01205104	1.66263944	4.21300332	9.69970229	0.86343663	0.52417340	9.18853517	-0.54946373	-0.52867865	5.06388295	-6.38219420	-0.21489371	9.60360156	0.43710766	0.95633328	5.95146293	-2.14328653	7.52579288	3.23340895	1.38459754	12.71384239
4048	40.47000000	-7.60593086	0.44605369	8.30231576	7.99149854	1.56658593	4.09861587	9.71458857	0.82743329	0.40171554	9.08828692	-0.78987072	-0.39598360	4.63568584	-6.51318557	-0.04398834	9.80063366	1.14624995	0.91284287	5.66715263	-2.53927920	7.62899207	3.41579554	1.66492164	12.26846494
4049	40.48000000	-7.45781105	0.42241878	8.26020653	8.08481907	1.32482298	4.04805960	9.81287651	0.82964047	0.28643097	8.98649612	-1.06604202	-0.34251290	4.64856523	-6.35800385	0.22379508	9.69751459	1.06185946	1.06644122	5.68494911	-2.44440013	7.81562447	3.62843087	1.88168187	11.77251908
4050	40.49000000	-7.37232994	0.47362364	8.29267500	8.22413124	1.06436627	3.99209940	9.91746017	0.94973569	0.55014892	9.06334254	-1.28455016	-0.27270161	5.16496822	-6.16277012	0.65117344	9.52077358	1.36834127	0.97811967	5.80097070	-2.35863563	7.59263848	4.19836892	2.14793484	11.31178317
4051	40.50000000	-7.35320446	0.46571410	8.18871952	8.42841303	0.89293320	3.91606498	10.04390132	1.13591892	0.85821752	9.26566784	-1.48425717	-0.24164254	5.74259101	-6.02423787	1.18004519	9.04729982	1.36065831	0.95165975	5.91824160	-2.32080009	7.56149674	4.68600785	2.56466126	11.28404469
4052	40.51000000	-7.40265165	0.49532898	8.39879851	8.59233025	0.84191526	3.78668122	9.93901995	1.33132753	1.16041428	9.45226897	-1.61888337	-0.24457057	6.21105605	-6.32254685	1.46615393	9.04895849	1.18168092	0.90737430	5.81329297	-2.11085136	7.85713062	5.37337183	2.65174152	11.40791719
4053	40.52000000	-7.31830814	0.54765702	8.32195168	8.70119367	0.73183153	3.65617521	9.79904226	1.26896687	1.28503719	9.48602903	-1.68263699	-0.18899620	6.41372246	-6.58459279	1.36621092	8.40711498	0.92729306	0.78481835	5.75314511	-1.93125777	7.78706390	6.15703353	2.66618756	11.49193971
4054	40.53000000	-7.18213609	0.54919906	8.25531967	8.85190367	0.94272125	3.52659235	9.77464082	0.72411094	1.37962586	9.36300344	-1.66715996	-0.07556577	6.24868924	-6.41951799	1.05917333	8.48064793	0.71743097	0.65044760	5.61862542	-2.10793817	7.91482755	6.54692517	2.95623563	11.58585837
4055	40.54000000	-7.22327356	0.55433284	8.16980559	8.90183380	1.18479353	3.43968074	9.78269031	0.30398409	1.31984536	9.45570941	-1.44087916	-0.01733715	6.44821471	-5.98920795	0.96980897	8.03310519	0.34445296	0.69943307	5.96830701	-1.81747460	7.72432240	6.25460938	3.30221564	11.39614511
4056	40.55000000	-7.32514904	0.52903311	8.11990962	9.06356160	1.50490527	3.28058911	9.80573975	0.10562142	1.16152700	9.42002188	-1.23749713	0.01235820	7.08594970	-5.49129816	1.02658825	8.00081214	0.11232765	0.57136394	5.86856592	-1.97457530	7.64521763	6.69529792	3.42125858	11.71801935
4057	40.56000000	-7.37111512	0.46441802	8.03127966	9.13787685	1.93953908	3.16314449	9.85883458	0.46054800	0.91669525	9.35344799	-1.04869184	0.05565450	7.49316143	-4.92253917	1.15780862	8.12460230	0.25009616	0.80005446	5.64933061	-2.19783694	7.76779854	9.20736121	3.68789081	12.88522687
4058	40.57000000	-7.39435137	0.46992379	8.02824919	9.12006687	2.06365477	3.12463016	9.72994474	0.92388243	0.85972148	9.35760401	-0.98140592	0.12734906	7.86568286	-4.34360248	1.27209302	7.98717490	0.62256199	0.81763145	5.70149757	-2.20941160	7.78403701	11.08390613	4.63635116	13.50421661
4059	40.58000000	-7.41574972	0.47150077	8.04445596	9.09975730	2.26216074	3.00620090	9.61950663	1.30292919	0.82931591	9.38920870	-1.04215569	0.06861316	8.51336881	-4.03256265	1.34092258	7.93807233	0.62903514	1.11667751	5.87219779	-2.16636897	7.55852187	10.53291527	4.92482646	12.97566731
4060	40.59000000	-7.51192723	0.46526382	8.12279695	9.08174112	2.24566511	2.95892796	9.72664551	1.69273233	0.75457318	9.37428229	-1.12831706	0.01212310	9.14408646	-4.05727760	0.86458490	8.16799716	0.82693649	1.33960704	6.00591677	-2.01573576	7.52282669	9.82989594	4.44656588	11.99309194
4061	40.60000000	-7.60651790	0.50407922	8.24977716	9.01312058	2.05979032	2.87970633	9.87551655	1.95017460	0.87292453	9.31632295	-1.21961337	0.01381010	9.56628945	-4.11317243	0.26292513	8.25964337	1.32758834	1.53191830	6.00216329	-1.98696342	7.70393464	9.87232378	4.31731512	11.39866802
4062	40.61000000	-7.64670311	0.55987053	8.28236375	8.91457928	1.94447350	2.82784206	9.87122154	2.12559323	0.99475615	9.21904369	-1.26815080	0.08747585	9.72582437	-4.26860262	0.35662818	8.40538941	1.58048133	1.45526501	5.91479840	-1.95898986	7.64705006	10.34306521	4.48212429	11.21173938
4063	40.62000000	-7.72455150	0.63638135	8.21374177	8.84480178	1.70386599	2.80309211	9.74868983	2.14120370	1.01606562	9.36167253	-1.13133251	0.05442650	9.74633061	-4.30132240	0.52498645	8.53320847	1.88141472	1.62899417	5.84367228	-1.94899847	7.76991087	11.45866499	4.45523287	11.43822542
4064	40.63000000	-7.77027761	0.70444029	8.33498207	8.75974852	1.57473356	2.73511990	9.76067722	1.95779753	0.81407683	9.30759505	-1.12129182	-0.11649925	9.91634577	-4.29489514	0.51279205	8.58596717	2.27589180	1.69915793	6.08859375	-1.79151232	7.70889287	13.94120113	3.94780020	11.85156162
4065	40.64000000	-7.76013969	0.77189460	8.50810857	8.70341969	1.48023118	2.74065565	9.86681057	1.68242697	0.70143287	9.34968027	-1.16357634	-0.29085586	10.21749594	-4.07621554	0.62742076	8.60902394	2.69569475	1.80244489	5.83632529	-1.98931512	7.73283361	16.38155632	2.98888197	11.70808389
4066	40.65000000	-7.68784942	0.87409105	8.50740799	8.69222536	1.48363059	2.80690395	10.06577240	1.58509688	0.77407402	9.44596701	-1.20060565	-0.31112893	10.87263096	-3.40898561	0.70913079	8.46070761	3.08110303	1.76701401	5.90884666	-1.97034416	7.79807129	17.18022670	2.21404932	10.63985357
4067	40.66000000	-7.63620182	0.94017221	8.50843351	8.67980466	1.49346421	2.86220454	10.24720205	1.61472833	0.88158452	9.37449177	-1.38083978	-0.14661219	11.19628444	-2.54169305	1.00635795	8.58657984	3.38381300	1.70792335	5.94986693	-1.74879667	8.03966376	16.68502642	1.76439957	8.72877265
4068	40.67000000	-7.79446596	0.92028793	8.56583410	8.83208863	1.52862303	2.92994106	10.41346879	1.67232615	1.02217271	9.47592909	-1.49595920	0.08343891	11.01141086	-2.13029804	1.69856608	8.63645156	3.42360040	1.78547024	6.28969217	-1.69680584	7.76266269	15.71647701	1.34195907	6.82639436
4069	40.68000000	-7.95691538	0.90041556	8.58567039	9.01913309	1.58557185	2.97386609	10.36412263	1.53237569	1.03100831	9.59136093	-1.39025486	0.06738514	10.40755328	-2.03063494	2.28976735	8.88350949	3.64618185	2.01383205	6.41507074	-1.56225502	7.79918202	15.92012385	0.54306880	5.49402431
4070	40.69000000	-8.03416774	0.85226730	8.65943403	9.26440606	1.71751546	3.05045560	10.20284891	1.23437595	1.16431526	9.58861252	-1.22904026	0.01298914	9.93545974	-1.28476748	2.49603664	9.12690900	3.97360940	2.08011531	6.27700050	-1.59724087	7.99616755	17.75476485	0.12706934	4.68111655
4071	40.70000000	-8.06853015	0.84382238	8.80801243	9.51708372	1.82060652	3.15817185	10.04872117	1.00429799	1.42724014	9.58265511	-1.15247973	-0.05519025	9.79258978	-0.23141449	2.50705834	9.25681612	4.34996957	2.05356922	6.10534852	-1.98946317	7.87093097	18.42089279	0.66634243	3.60714936
4072	40.71000000	-8.09532291	0.76475439	8.85505588	9.65694829	1.96769604	3.29894363	10.03682227	0.96224319	1.45009565	9.68617433	-1.07815797	-0.36192322	9.71860206	0.21347648	2.55017033	9.39029287	4.70811238	2.08230731	5.92568479	-1.49631643	8.52461681	16.61180282	0.82755437	1.64516854
4073	40.72000000	-8.07183037	0.71388778	8.88947621	9.76571185	2.18266082	3.33003608	10.29736309	0.93764849	1.47895676	9.87109553	-0.96126534	-0.59872138	9.53352362	0.13179280	1.82530538	9.26658812	4.78963342	1.94637451	6.17697366	-0.99478687	8.44518866	14.17637296	0.62217414	-0.44622502
4074	40.73000000	-8.00728949	0.71712619	8.93614058	9.69083327	2.11209078	3.34060645	10.54759447	0.97738934	1.70658014	10.14012358	-0.91086643	-0.72520945	9.38819721	0.43770832	1.23435403	9.17460350	4.63284148	1.81698351	5.99153517	-0.95752103	8.60233493	12.81637426	0.73809042	-1.96047648
4075	40.74000000	-7.90780553	0.69448180	8.89614148	9.57096254	2.13288861	3.16095635	10.70447545	1.16035038	2.07903924	10.35460815	-0.91069534	-0.66904963	9.05969570	1.21938439	1.26155336	9.26217076	4.51665469	1.80457050	5.68936734	-1.92961313	8.56925934	12.76254164	1.41163162	-2.34318707
4076	40.75000000	-7.96831539	0.67035194	8.87424333	9.56500569	2.15165171	2.92407929	10.75961808	1.13982789	1.79407996	10.49219536	-0.94575696	-0.52790202	9.07446227	1.55172508	1.74969137	9.35340261	4.38736316	1.74678228	6.10798296	-0.98736244	8.79083993	13.22419468	1.83058928	-1.84529171
4077	40.76000000	-8.05755972	0.69942869	8.84949962	9.38515083	2.01246801	2.76099784	10.78468241	1.03604002	2.07272487	10.46076458	-1.00732359	-0.29002395	8.78475594	0.85787055	1.98416423	9.39693911	3.92220632	1.76206103	6.22404084	-1.24248698	8.45562511	14.22773017	5.10241865	1.33391447
4078	40.77000000	-8.12352029	0.70768279	8.78029200	9.44830024	2.14255358	2.65225810	10.67617478	1.07413039	2.17631467	10.27831230	-1.26452184	-0.09501455	8.79834592	-0.74423771	1.76309649	9.21984573	3.12473946	1.97395149	6.27004623	-1.21463040	8.43563476	11.17120513	4.70350711	-2.24290140
4079	40.78000000	-8.22517017	0.74601503	8.79489763	9.59121706	2.16547022	2.60607829	10.74442861	1.02678239	1.96889136	10.18788810	-1.60376827	-0.01103420	9.44707588	-1.23629618	1.22790514	8.92196451	2.51894446	2.21790257	6.24661155	-1.31660786	8.62022478	16.74606559	0.07673208	-3.91402077
